HIERARCHY
ROOT hip
{
	OFFSET 0.000000 0.000000 0.000000 
	CHANNELS 6 Xposition Yposition Zposition Xrotation Zrotation Yrotation
	JOINT abdomen
	{
		OFFSET 0.000000 3.402643 0.000000 
		CHANNELS 3 Xrotation Zrotation Yrotation
		JOINT chest
		{
			OFFSET 0.000000 8.438565 -0.680529 
			CHANNELS 3 Xrotation Zrotation Yrotation
			JOINT neck
			{
				OFFSET 0.000000 10.207942 -0.272212 
				CHANNELS 3 Xrotation Zrotation Yrotation
				JOINT head
				{
					OFFSET 0.000000 3.130431 0.000000 
					CHANNELS 3 Xrotation Zrotation Yrotation
					End Site
					{
						OFFSET 0.000000 3.130435 0.000000 
					}
				}
			}
			JOINT lCollar
			{
				OFFSET 3.470700 6.669187 -0.816635 
				CHANNELS 3 Yrotation Zrotation Xrotation
				JOINT lShldr
				{
					OFFSET 3.198488 0.000000 0.000000 
					CHANNELS 3 Zrotation Yrotation Xrotation
					JOINT lForeArm
					{
						OFFSET 10.139888 0.000000 0.000000 
						CHANNELS 3 Yrotation Zrotation Xrotation
						JOINT lHand
						{
							OFFSET 8.370511 0.000000 0.000000 
							CHANNELS 3 Zrotation Yrotation Xrotation
							End Site
							{
								OFFSET 4.083176 0.000000 0.000000 
							}
						}
					}
				}
			}
			JOINT rCollar
			{
				OFFSET -3.470700 6.669187 -0.816635 
				CHANNELS 3 Yrotation Zrotation Xrotation
				JOINT rShldr
				{
					OFFSET -3.198488 0.000000 0.000000 
					CHANNELS 3 Zrotation Yrotation Xrotation
					JOINT rForeArm
					{
						OFFSET -10.139888 0.000000 0.000000 
						CHANNELS 3 Yrotation Zrotation Xrotation
						JOINT rHand
						{
							OFFSET -8.370511 0.000000 0.000000 
							CHANNELS 3 Zrotation Yrotation Xrotation
							End Site
							{
								OFFSET -4.083176 0.000000 0.000000 
							}
						}
					}
				}
			}
		}
	}
	JOINT lThigh
	{
		OFFSET 5.308129 -1.633274 1.361059 
		CHANNELS 3 Xrotation Zrotation Yrotation
		JOINT lShin
		{
			OFFSET -2.041588 -20.007561 0.000000 
			CHANNELS 3 Xrotation Zrotation Yrotation
			JOINT lFoot
			{
				OFFSET 0.000000 -19.190928 -1.224953 
				CHANNELS 3 Xrotation Yrotation Zrotation
				End Site
				{
					OFFSET 0.000000 -2.449906 4.627600 
				}
			}
		}
	}
	JOINT rThigh
	{
		OFFSET -5.308129 -1.633274 1.361059 
		CHANNELS 3 Xrotation Zrotation Yrotation
		JOINT rShin
		{
			OFFSET 2.041588 -20.007561 0.000000 
			CHANNELS 3 Xrotation Zrotation Yrotation
			JOINT rFoot
			{
				OFFSET 0.000000 -19.190928 -1.224953 
				CHANNELS 3 Xrotation Yrotation Zrotation
				End Site
				{
					OFFSET 0.000000 -2.449906 4.627600 
				}
			}
		}
	}
}
MOTION
Frames: 13
Frame Time: 0.033333
-153.721542 44.218048 -4.629046 -13.234063 2.357631 -10.856949 32.803215 -2.352119 4.871445 -20.839844 0.000000 0.000000 -29.658798 11.835817 54.854984 -2.520846 -1.255050 0.218350 -4.754607 -0.109226 -0.002657 -46.933075 -28.597296 -2.494352 -85.875282 -17.685631 -4.547568 -9.992136 19.192469 -11.282382 4.754607 0.109226 -0.002676 62.252365 1.073978 -10.577000 99.642647 5.123961 11.097111 12.982892 11.222092 19.413424 -17.576164 -18.224457 -29.367498 3.407772 12.006486 -11.931594 49.896416 15.851862 -35.543106 3.132431 -15.543270 -18.684563 40.098724 18.144550 -9.724325 -27.215181 0.507755 -9.193206 
-152.300552 45.581177 -5.591601 -12.778878 4.743379 -1.298636 33.008018 -3.359349 4.863705 -20.839844 0.000000 0.000000 -20.843512 16.533306 70.821831 -2.520846 -1.255050 0.218350 -4.754607 -0.109226 -0.002657 -49.587849 -33.481388 0.276992 -78.854446 -18.309626 -0.107268 -10.040732 15.863527 -7.717971 4.754607 0.109226 -0.002676 61.233418 -5.657484 -13.156460 101.215866 4.510892 10.999015 10.842863 12.578329 19.275175 -14.501653 -17.000940 -34.120655 5.575931 10.828730 -15.455296 52.522110 19.936447 -38.000443 5.320812 -16.795284 -18.491898 31.805033 18.579313 -13.887162 -17.791843 -6.765275 -4.776540 
-150.848557 46.971222 -6.560262 -12.048215 6.772745 7.445686 32.999081 -5.288717 5.159642 -20.839844 0.000000 0.000000 -13.597217 20.277628 81.797035 -2.520846 -1.255050 0.218350 -4.754607 -0.109226 -0.002657 -54.141731 -35.962597 3.901338 -71.542587 -18.682243 4.706430 -10.214999 13.607780 -4.166684 4.754607 0.109226 -0.002676 63.405678 -12.712313 -15.856940 100.372833 3.090160 12.495271 7.510094 15.273462 20.974691 -11.415672 -14.421485 -34.321877 5.828650 10.628978 -15.494373 55.873390 20.453966 -37.660614 7.740899 -15.875255 -18.494610 22.527269 14.086391 -18.263432 -6.455730 -11.427953 1.004402 
-149.385422 48.089630 -7.546712 -10.768146 7.926188 16.125555 32.194828 -6.276134 5.090367 -20.839844 0.000000 0.000000 -9.945980 22.652725 84.081703 -2.520846 -1.255050 0.218350 -4.754607 -0.109226 -0.002657 -60.952724 -35.449455 7.845843 -63.592560 -18.034428 9.705109 -8.853525 12.457612 -0.421652 4.754607 0.109226 -0.002676 65.360893 -19.627304 -17.772718 97.711487 3.395192 13.473034 1.619779 17.842640 21.587074 -9.042645 -10.779458 -27.615219 3.368847 11.723353 -11.603290 57.131016 15.536427 -30.832277 10.560828 -13.472716 -16.575060 12.779399 8.957239 -17.512548 4.593094 -9.095194 2.875942 
-147.893356 48.574478 -8.455983 -9.834890 8.844820 25.494755 31.850513 -6.067822 3.601993 -20.839844 0.000000 0.000000 -10.387671 24.225765 77.579971 -2.520846 -1.255050 0.218350 -4.754607 -0.109226 -0.002657 -68.942368 -32.520218 10.659753 -54.545872 -15.437529 14.383668 -6.727199 11.715708 3.776773 4.754607 0.109226 -0.002676 66.814484 -24.136044 -18.630768 93.306244 4.492716 13.690118 -2.714696 18.118469 20.866146 -8.191576 -7.212327 -23.597023 2.128747 11.810369 -9.294502 58.661980 13.896341 -28.307524 15.558681 -11.177700 -14.700728 4.275261 7.370404 -9.469129 10.792895 3.127264 0.456431 
-146.290634 48.443497 -9.287038 -9.121792 10.599790 35.603287 32.310856 -5.877899 0.500691 -20.839844 0.000000 0.000000 -13.374713 25.226116 66.514069 -2.520846 -1.255050 0.218350 -4.754607 -0.109226 -0.002657 -76.485359 -27.912977 11.060697 -45.166672 -11.112528 16.776094 -5.256215 11.283026 7.240938 4.754607 0.109226 -0.002676 69.194069 -25.606302 -19.588255 86.318672 3.810488 15.308090 -1.704896 19.704559 22.672623 -8.016962 -4.920985 -22.791512 2.187757 12.109188 -8.583232 60.658821 14.570284 -29.481855 18.400766 -10.759259 -12.916812 5.711275 7.496193 -0.694533 8.406472 12.350857 -1.894498 
-144.620850 47.889603 -10.168843 -8.591105 12.112767 45.090038 33.354897 -6.190702 -2.192042 -20.839844 0.000000 0.000000 -17.402666 26.291454 53.653187 -2.520846 -1.255050 0.218350 -4.754607 -0.109226 -0.002657 -81.794464 -22.389860 7.774360 -36.711792 -5.844525 15.120745 -4.991438 10.661024 9.344370 4.754607 0.109226 -0.002676 72.824661 -25.077961 -20.805662 78.569679 1.466587 16.674210 3.509618 20.989857 25.611816 -8.474380 -2.049588 -21.241964 2.021559 12.319280 -7.967704 62.229252 15.674960 -28.230600 19.295868 -9.238738 -7.100213 10.365299 4.584918 1.808495 1.119050 6.043191 -1.645594 
-143.012497 46.900131 -11.158860 -7.558605 12.346314 54.478329 33.791122 -5.674532 -3.969498 -20.839844 0.000000 0.000000 -22.100391 26.005533 40.738140 -2.520846 -1.255050 0.218350 -4.754607 -0.109226 -0.002657 -84.626884 -17.928148 1.449895 -28.027981 -0.361932 9.070372 -6.230686 10.261017 10.338821 4.754607 0.109226 -0.002676 75.476089 -24.229475 -21.653816 72.040565 -0.445584 16.165411 8.500003 19.470440 26.234083 -11.427167 1.096109 -20.058685 2.118914 12.424196 -8.168904 63.871120 17.944916 -25.329809 17.984583 -6.101918 0.620617 16.970263 0.504694 -0.512885 -8.704258 -8.386827 0.568454 
-141.503174 45.717743 -12.219897 -6.812064 10.862131 63.574730 33.269093 -2.834956 -4.538315 -20.839844 0.000000 0.000000 -26.690607 22.819139 30.241247 -2.520846 -1.255050 0.218350 -4.754607 -0.109226 -0.002657 -84.238533 -14.881645 4.605069 -17.869207 8.597201 6.055823 -11.121188 8.473409 -4.416713 4.754607 0.109226 -0.002676 76.059540 -23.284937 -22.119198 67.972176 -1.712639 14.988232 11.455869 15.845408 25.311195 -16.392609 4.823930 -15.849411 1.036161 11.695741 -7.256371 64.035194 17.787653 -16.926687 17.565584 -4.353897 1.502995 20.360117 0.823017 -4.727672 -17.156357 -14.032666 1.435211 
-139.957794 44.532822 -13.409396 -7.604115 8.528975 69.882301 32.633610 1.860471 -2.282104 -20.839844 0.000000 0.000000 -30.656498 18.179201 23.375729 -2.520846 -1.255050 0.218350 -4.754607 -0.109226 -0.002657 -80.230255 -11.076259 3.086390 -10.851111 12.179992 1.730799 -15.058054 8.202351 -15.811617 4.754607 0.109226 -0.002676 75.369759 -22.083469 -22.288326 66.867172 -2.663928 14.670702 11.425047 12.607699 25.088041 -21.068851 10.320653 -11.061292 -1.082741 8.765226 -5.553016 63.578548 18.036219 -8.445549 18.587574 -5.154986 -2.830216 20.487812 4.813563 -6.911109 -22.804399 -10.996100 4.886804 
-138.294128 43.667740 -14.625278 -8.470578 6.365925 73.116905 32.377644 4.867018 1.234860 -20.839844 0.000000 0.000000 -34.106815 14.322765 19.245609 -2.520846 -1.255050 0.218350 -4.754607 -0.109226 -0.002657 -72.916603 -4.425838 -3.994898 -10.850756 12.093923 -4.294004 -16.294559 9.929759 -21.162357 4.754607 0.109226 -0.002676 75.712631 -21.162941 -22.206459 70.548820 -3.213495 13.799608 10.617105 9.853389 23.407911 -23.830755 16.236477 -6.743081 -3.132607 4.538116 -2.848481 63.442608 20.070086 -0.816254 20.948847 -6.795025 -6.445827 17.623629 8.117710 -7.379288 -24.528009 -8.200694 8.735245 
-136.478195 43.460587 -15.716827 -7.027818 5.757493 76.167091 32.948460 3.198665 2.093959 -20.839844 0.000000 0.000000 -36.926140 11.659607 16.272749 -2.520846 -1.255050 0.218350 -4.754607 -0.109226 -0.002657 -65.584381 4.318645 -14.889068 -15.722433 11.288892 -12.000279 -13.898198 11.451322 -19.527826 4.754607 0.109226 -0.002676 76.563362 -20.356009 -21.615004 76.441040 -2.984294 11.917108 9.366158 8.935415 19.828911 -23.446396 18.632183 -4.704123 -4.244210 1.199704 -0.471754 65.218758 22.929935 3.283060 24.965696 -8.641735 -8.054136 12.151755 8.429517 -8.475745 -22.655628 -9.674996 9.034383 
-134.137772 43.422516 -16.984468 -4.490054 6.299124 78.442741 32.696880 0.082009 3.278119 -20.839844 0.000000 0.000000 -37.688503 8.423260 13.562274 -2.520846 -1.255050 0.218350 -4.754607 -0.109226 -0.002657 -59.493408 13.064685 -30.318151 -24.664282 8.934813 -21.124174 -8.989231 13.310093 -9.539274 4.754607 0.109226 -0.002676 76.399231 -20.135389 -20.936998 82.058319 -2.066218 9.602385 6.376819 9.778892 15.571457 -26.251310 15.992202 -7.174092 8.327901 1.758323 -1.373771 56.820740 23.708950 1.560348 28.188532 -11.297557 -9.337459 10.232358 5.921829 -8.004247 -15.431887 -12.346960 12.149106 
